Coordinates
version=1
nRows=29
nColumns=24
inDegrees=yes

Units are S.I. units (second, meters, Newtons, ...)
Angles are in degrees.

endheader
time	pelvis_tilt	pelvis_list	pelvis_rotation	pelvis_tx	pelvis_ty	pelvis_tz	hip_flexion_r	hip_adduction_r	hip_rotation_r	knee_angle_r	ankle_angle_r	subtalar_angle_r	mtp_angle_r	hip_flexion_l	hip_adduction_l	hip_rotation_l	knee_angle_l	ankle_angle_l	subtalar_angle_l	mtp_angle_l	lumbar_extension	lumbar_bending	lumbar_rotation
      5.87000000	    -12.51741469	      6.30052810	      5.95736221	     -0.37561707	     -0.03206631	      2.03447735	     16.39040711	    -11.91119616	    -12.20880192	    -58.79282912	    -18.33693290	     -1.78630970	     -8.06700371	     29.03672775	     12.86702140	     -1.81210164	    -20.60951469	     -3.40182816	     -6.85242722	     15.07823019	      9.22317198	     -8.77370884	     -2.80443878
      5.88000000	    -12.53589560	      6.32323447	      5.89860666	     -0.36367402	     -0.03030885	      2.03378584	     18.26699975	    -11.75414401	    -11.12072706	    -60.51595207	    -15.82201720	     -3.07336669	    -12.51328649	     27.96372873	     12.80513299	     -2.06869275	    -20.07287944	     -3.12643924	     -6.62011890	     17.43913369	      9.12024691	     -8.77782618	     -3.08767919
      5.89000000	    -12.52606329	      6.28254428	      5.82813348	     -0.35182696	     -0.02847618	      2.03299346	     20.08232376	    -11.51646506	    -10.10256866	    -61.88397165	    -13.63450178	     -4.04452885	    -15.17319441	     26.82028287	     12.73061043	     -2.04536296	    -19.55572047	     -2.32112366	     -6.22050988	     16.84556664	      8.98845634	     -8.68797416	     -3.38343979
      5.90000000	    -12.32881131	      6.23327001	      5.67443816	     -0.33995731	     -0.02638357	      2.03222078	     21.63857168	    -11.23089918	     -9.15346066	    -62.84218009	    -12.06575500	     -4.92504201	    -15.29071021	     25.36147419	     12.64455057	     -1.85799560	    -18.79999459	     -1.82889066	     -6.21826898	     16.75963276	      8.67651730	     -8.54206618	     -3.58047380
      5.91000000	    -12.18688252	      6.05081153	      5.63464728	     -0.32824771	     -0.02447740	      2.03123599	     23.20944962	    -10.83186171	     -8.33045375	    -63.59522636	     -9.71485512	     -5.06686545	    -19.86093036	     24.01299552	     12.51229712	     -1.39226342	    -18.19425522	     -0.91927260	     -6.09891145	     14.40351115	      8.39903489	     -8.26945407	     -3.89517127
      5.92000000	    -12.03218268	      5.87103847	      5.59815267	     -0.31653597	     -0.02269788	      2.03019530	     24.69029861	    -10.47519667	     -7.66633645	    -63.98605897	     -8.18041175	     -5.23928904	    -19.90516396	     22.63436117	     12.37101476	     -1.00214193	    -17.46594895	     -0.54497866	     -6.27654285	     14.29531706	      8.12465143	     -7.99864245	     -4.25098876
      5.93000000	    -11.79717344	      5.54534187	      5.65162459	     -0.30491967	     -0.02090475	      2.02901805	     25.97504681	     -9.99318547	     -7.20274209	    -64.05668196	     -6.18459437	     -5.04419589	    -22.86879466	     21.23961780	     12.11079013	     -0.48244977	    -16.90877039	      0.26336526	     -6.20572685	     12.35576950	      7.75440159	     -7.57370256	     -4.70594228
      5.94000000	    -11.65719147	      5.26753175	      5.67678851	     -0.29340238	     -0.01941351	      2.02786099	     27.32030068	     -9.58965619	     -6.80109740	    -63.85129370	     -4.70132695	     -4.88406056	    -22.81694418	     19.96516676	     11.87573242	     -0.12344834	    -16.27616296	      0.58561209	     -6.38897768	     12.29324098	      7.48127738	     -7.20087056	     -5.09610915
      5.95000000	    -11.46319720	      4.90935196	      5.80394017	     -0.28187247	     -0.01796004	      2.02657227	     28.46683354	     -9.18446031	     -6.65308195	    -63.30337719	     -3.29090162	     -4.63217123	    -22.85825844	     18.65648676	     11.56973078	      0.25301215	    -15.69070415	      1.00805482	     -6.41222662	     12.18432041	      7.15953304	     -6.75579865	     -5.56205820
      5.96000000	    -11.22093688	      4.50954112	      5.96374172	     -0.27044459	     -0.01657582	      2.02526666	     29.46631821	     -8.77466571	     -6.64983608	    -62.45870713	     -2.01626602	     -4.37670516	    -23.11207839	     17.32959744	     11.20903353	      0.59917354	    -15.14147070	      1.44422467	     -6.39120877	     12.04088572	      6.77774638	     -6.26445795	     -6.05120874
      5.97000000	    -11.01950088	      4.09431216	      6.16175089	     -0.25906973	     -0.01539124	      2.02395173	     30.42724147	     -8.39942588	     -6.76877473	    -61.36043217	     -0.92248470	     -4.14412724	    -23.47935842	     16.07036438	     10.82552024	      0.93141207	    -14.61874576	      1.89065826	     -6.29011126	     11.97297423	      6.44194102	     -5.77093054	     -6.50981408
      5.98000000	    -10.82081056	      3.66881779	      6.37037015	     -0.24771526	     -0.01436794	      2.02263159	     31.31030910	     -8.04862453	     -6.99842661	    -60.01566940	     -0.04463408	     -4.01279948	    -24.04382524	     14.82228421	     10.42148646	      1.25483606	    -14.09445730	      2.32690725	     -6.20774800	     11.94341059	      6.11767372	     -5.26347127	     -6.95811995
      5.99000000	    -10.65534063	      3.26462199	      6.59071074	     -0.23635885	     -0.01356630	      2.02131800	     32.15215305	     -7.75202161	     -7.30478976	    -58.46295081	      0.69035767	     -3.93510904	    -24.77799385	     13.61029367	     10.03297778	      1.58061120	    -13.56488110	      2.75009407	     -6.13376775	     11.92478190	      5.83837904	     -4.78150762	     -7.38198804
      6.00000000	    -10.57098776	      2.96956870	      6.72887457	     -0.22497137	     -0.01313828	      2.02010001	     33.05585059	     -7.52338943	     -7.40851691	    -56.86563991	      2.44759644	     -3.32531650	    -31.36433673	     12.47750794	      9.74625445	      1.82906519	    -13.03805624	      3.23724128	     -6.10194025	     11.37214936	      5.65410234	     -4.40599970	     -7.67090990
      6.01000000	    -10.54009697	      2.60346708	      6.93802967	     -0.21359656	     -0.01284780	      2.01889256	     33.87455129	     -7.29047518	     -7.80091374	    -54.90935026	      2.90403983	     -3.35440002	    -31.47016326	     11.41992398	      9.38022030	      2.11427801	    -12.51410730	      3.64338730	     -6.01512935	     11.43603243	      5.53890792	     -3.98236453	     -8.03539951
      6.02000000	    -10.47908821	      2.25676718	      7.11159143	     -0.20218367	     -0.01268574	      2.01779907	     34.55424388	     -7.04898190	     -8.18595643	    -52.74542270	      3.41207108	     -3.29073844	    -31.75585876	     10.32553152	      9.00340337	      2.34304290	    -11.98226265	      4.07883525	     -5.87809241	     11.46945769	      5.40078987	     -3.57785845	     -8.35658514
      6.03000000	    -10.43800766	      1.98570491	      7.21335692	     -0.19073466	     -0.01276169	      2.01682258	     35.17947932	     -6.83322972	     -8.42021738	    -50.46701004	      4.64407319	     -2.79849183	    -35.86095777	      9.24774155	      8.68456993	      2.47581485	    -11.45389959	      4.55054424	     -5.71933316	     11.24470735	      5.28905282	     -3.24349467	     -8.58291419
      6.04000000	    -10.54989012	      1.67459085	      7.31680829	     -0.17931055	     -0.01312923	      2.01599826	     35.87489825	     -6.59325013	     -8.78462505	    -47.95100325	      5.08865846	     -2.51786295	    -35.98805972	      8.38116690	      8.31520572	      2.53668414	    -10.98389910	      5.03379246	     -5.43772656	     11.35198183	      5.34319628	     -2.90587965	     -8.80428488
      6.05000000	    -10.58130353	      1.39134555	      7.39115645	     -0.16788459	     -0.01357473	      2.01526746	     36.38623915	     -6.36309098	     -9.18778330	    -45.27041419	      5.60065915	     -2.00010240	    -36.36122302	      7.44043896	      7.94659957	      2.46248908	    -10.53553322	      5.54722843	     -5.06370860	     11.46946946	      5.30699285	     -2.58067278	     -9.04906696
      6.06000000	    -10.49377582	      1.16072879	      7.28763101	     -0.15636969	     -0.01409899	      2.01485188	     36.71081302	     -6.04676024	     -9.45271495	    -42.47236666	      6.36285770	     -1.16371859	    -38.10058188	      6.34461906	      7.58419500	      2.23145226	    -10.04820353	      6.06835417	     -4.72113512	     11.57091746	      5.14627820	     -2.27931410	     -9.05654284
      6.07000000	    -10.68379282	      0.94459399	      7.32172796	     -0.14497676	     -0.01506904	      2.01429840	     37.27031322	     -5.90473383	     -9.91850368	    -39.63266421	      7.33245803	      0.18973546	    -40.96436425	      5.63846514	      7.29750669	      2.05878423	     -9.72215173	      6.57488662	     -4.31362130	     11.69362484	      5.26083601	     -2.05142862	     -9.20618769
      6.08000000	    -10.96002917	      0.68326017	      7.32114149	     -0.13360030	     -0.01621774	      2.01390494	     37.84221578	     -5.68406142	    -10.47243616	    -36.65395452	      7.83067308	      1.63358852	    -41.02429672	      5.08648245	      6.97010565	      1.85846845	     -9.49384016	      7.07202359	     -3.98620318	     11.81637661	      5.46260972	     -1.78673503	     -9.30955793
      6.09000000	    -11.07887808	      0.40448156	      7.19637722	     -0.12219915	     -0.01721812	      2.01373132	     38.14641775	     -5.32629336	    -10.96899101	    -33.54965779	      8.37439674	      3.44234647	    -41.22147136	      4.39023749	      6.57712845	      1.40685638	     -9.31193930	      7.63146536	     -3.47369236	     11.97727840	      5.48699580	     -1.46640733	     -9.30964985
      6.10000000	    -11.25103178	      0.12862822	      7.03155811	     -0.11068349	     -0.01830133	      2.01369923	     38.39974569	     -4.91816034	    -11.45445901	    -30.37272515	      9.03530591	      5.46542636	    -41.31248415	      3.77040558	      6.19193892	      0.87530209	     -9.17461959	      8.13580547	     -2.97440090	     12.12274665	      5.57481779	     -1.15903895	     -9.18064420
      6.11000000	    -11.39555160	     -0.18453924	      6.79419316	     -0.09919051	     -0.01931616	      2.01382139	     38.52270201	     -4.38420543	    -11.87557404	    -27.11714560	      9.64584426	      7.53724385	    -41.33376860	      3.17830233	      5.75352078	      0.18354027	     -9.13703491	      8.64510358	     -2.39303205	     12.27357319	      5.61985215	     -0.79384309	     -8.99878959
      6.12000000	    -11.51966218	     -0.47730891	      6.52918126	     -0.08758968	     -0.02034069	      2.01409887	     38.51300386	     -3.80199862	    -12.22208519	    -23.81553761	     10.18394493	      9.51072852	    -41.20847193	      2.59721665	      5.32258964	     -0.61633268	     -9.18239460	      9.12570925	     -1.73076022	     12.41941749	      5.63979103	     -0.44954028	     -8.76594287
      6.13000000	    -11.47723439	     -0.80048005	      6.28694770	     -0.07565176	     -0.02123480	      2.01452217	     38.13998181	     -3.11017631	    -12.48252406	    -20.36187753	     10.46670846	     11.12473866	    -40.78275349	      1.84742630	      4.81397434	     -1.45059864	     -9.29666738	      9.63059872	     -0.89966344	     12.56585643	      5.51685388	     -0.07477866	     -8.53681370
      6.14000000	    -11.32885326	     -1.02817943	      6.16310857	     -0.06327535	     -0.02223163	      2.01495489	     37.47815365	     -2.52812102	    -12.73357154	    -16.85620874	     10.55462181	     12.52735304	    -39.95005967	      0.97668124	      4.38246087	     -2.19518520	     -9.47861498	     10.08480495	      0.00328600	     12.69160286	      5.32220582	      0.17759401	     -8.41095868
      6.15000000	    -11.09908928	     -1.21688277	      6.13775078	     -0.05059945	     -0.02326701	      2.01541687	     36.61739869	     -1.99891355	    -13.04602953	    -13.41582287	     10.10660400	     13.61521626	    -36.62102231	      0.05372749	      3.96577288	     -2.80143817	     -9.77700746	     10.48759724	      0.91436634	     12.64610803	      5.06885079	      0.36901193	     -8.36251992
